<svg xmlns="http://www.w3.org/2000/svg" xmlns:xlink="http://www.w3.org/1999/xlink" width="100%" height="100%" version="1.1" viewBox="0 0 639 276" xml:space="preserve" style="fill-rule:evenodd;clip-rule:evenodd;stroke-linejoin:round;stroke-miterlimit:2"><g><g><g transform="matrix(1,0,0,1,-2056.73,-80.567) matrix(1.32375,0,0,1,1924,2.84217e-14) matrix(1,0,0,1.00365,-3.18134e-13,-0.29404)"><g id="step-1"><g transform="matrix(0.75543,0,0,1,-2.27374e-13,-1.42109e-14) matrix(5.22727,0,0,0.686275,-734.997,-207.668)"><rect width="88" height="51" x="166" y="420" style="fill:#2befb3;fill-opacity:0"/></g><g transform="matrix(0.75543,0,0,1,-2.27374e-13,-1.42109e-14) matrix(1,0,0,0.996364,132.73,90.6144)"><g id="step-11"><text x="0" y="12" style="font-family:'RobotoMono-Regular','Roboto Mono',monospace;font-size:16px;fill:#ff8282">i<tspan x="10.802 21.603 32.405 43.206 54.008" y="12 12 12 12 12">mport</tspan></text><text x="75.611" y="12" style="font-family:'RobotoMono-Regular','Roboto Mono',monospace;font-size:16px;fill:#b2b2b2">{</text><text x="97.214" y="12" style="font-family:'RobotoMono-Regular','Roboto Mono',monospace;font-size:16px;fill:#ffe9a2">u<tspan x="108.016 118.817 129.619 140.42 151.222 162.023 172.825" y="12 12 12 12 12 12 12">seState</tspan></text><text x="194.428" y="12" style="font-family:'RobotoMono-Regular','Roboto Mono',monospace;font-size:16px;fill:#b2b2b2">}</text><text x="216.031" y="12" style="font-family:'RobotoMono-Regular','Roboto Mono',monospace;font-size:16px;fill:#ff8282"><tspan x="216.031 226.833 237.634 248.436" y="12 12 12 12">from</tspan></text><text x="270.039" y="12" style="font-family:'RobotoMono-Regular','Roboto Mono',monospace;font-size:16px;fill:#b2b2b2">&quot;</text><text x="280.841" y="12" style="font-family:'RobotoMono-Regular','Roboto Mono',monospace;font-size:16px;fill:#fff">r<tspan x="291.642 302.444 313.245 324.047" y="12 12 12 12">eact</tspan></text><text x="334.848" y="12" style="font-family:'RobotoMono-Regular','Roboto Mono',monospace;font-size:16px;fill:#b2b2b2">&quot;</text></g></g></g><g transform="matrix(0.75543,0,0,0.996364,100.268,144.567)"><g id="step-2"><g id="step-21"><text x="0" y="12" style="font-family:'RobotoMono-Regular','Roboto Mono',monospace;font-size:16px;fill:#ff8282">f<tspan x="10.802 21.603 32.405 43.206 54.008 64.809 75.611" y="12 12 12 12 12 12 12">unction</tspan></text><text x="97.214" y="12" style="font-family:'RobotoMono-Regular','Roboto Mono',monospace;font-size:16px;fill:#2befb3">C<tspan x="108.016 118.817 129.619 140.42 151.222 162.023 172.825 183.627" y="12 12 12 12 12 12 12 12">omponent</tspan></text><text x="194.428" y="12" style="font-family:'RobotoMono-Regular','Roboto Mono',monospace;font-size:16px;fill:#b2b2b2">(</text><text x="205.23" y="12" style="font-family:'RobotoMono-Regular','Roboto Mono',monospace;font-size:16px;fill:#fff">)</text><text x="216.031" y="12" style="font-family:'RobotoMono-Regular','Roboto Mono',monospace;font-size:16px;fill:#b2b2b2">{</text><text x="36" y="40" style="font-family:'RobotoMono-Regular','Roboto Mono',monospace;font-size:16px;fill:#ff8282">c<tspan x="46.802 57.603 68.405 79.206" y="40 40 40 40">onst</tspan></text><text x="100.809" y="40" style="font-family:'RobotoMono-Regular','Roboto Mono',monospace;font-size:16px;fill:#b2b2b2"><tspan x="100.809" y="40">[</tspan></text><text x="122.413" y="40" style="font-family:'RobotoMono-Regular','Roboto Mono',monospace;font-size:16px;fill:#ffe9a2">v<tspan x="133.214 144.016 154.817 165.619" y="40 40 40 40">alue</tspan></text><text x="176.42" y="40" style="font-family:'RobotoMono-Regular','Roboto Mono',monospace;font-size:16px;fill:#b2b2b2">,</text><text x="198.023" y="40" style="font-family:'RobotoMono-Regular','Roboto Mono',monospace;font-size:16px;fill:#ffe9a2">s<tspan x="208.825 219.627 230.428 241.23 252.031 262.833 273.634" y="40 40 40 40 40 40 40">etValue</tspan></text><text x="295.237" y="40" style="font-family:'RobotoMono-Regular','Roboto Mono',monospace;font-size:16px;fill:#b2b2b2"><tspan x="295.237 306.039 316.841" y="40 40 40">] =</tspan></text><text x="338.444" y="40" style="font-family:'RobotoMono-Regular','Roboto Mono',monospace;font-size:16px;fill:#ffe9a2">u<tspan x="349.245 360.047 370.848 381.65 392.452 403.253 414.055" y="40 40 40 40 40 40 40">seState</tspan></text><text x="424.856" y="40" style="font-family:'RobotoMono-Regular','Roboto Mono',monospace;font-size:16px;fill:#b2b2b2">(<tspan x="435.658 446.459 457.261" y="40 40 40">0);</tspan></text><text x="36" y="68" style="font-family:'RobotoMono-Regular','Roboto Mono',monospace;font-size:16px;fill:#ff8282"><tspan x="36 46.802 57.603 68.405 79.206 90.008" y="68 68 68 68 68 68">return</tspan></text><text x="111.611" y="68" style="font-family:'RobotoMono-Regular','Roboto Mono',monospace;font-size:16px;fill:#77b2b0">&lt;<tspan x="122.413" y="68">&gt;</tspan></text><text x="79.206" y="96" style="font-family:'RobotoMono-Regular','Roboto Mono',monospace;font-size:16px;fill:#77b2b0"><tspan x="79.206" y="96">&lt;</tspan></text><text x="90.008" y="96" style="font-family:'RobotoMono-Regular','Roboto Mono',monospace;font-size:16px;fill:#abfffc">b<tspan x="100.809 111.611 122.413 133.214 144.016" y="96 96 96 96 96">utton</tspan></text><text x="165.619" y="96" style="font-family:'RobotoMono-Regular','Roboto Mono',monospace;font-size:16px;fill:#2befb3">o<tspan x="176.42 187.222 198.023 208.825 219.627 230.428" y="96 96 96 96 96 96">nClick</tspan></text><text x="241.23" y="96" style="font-family:'RobotoMono-Regular','Roboto Mono',monospace;font-size:16px;fill:#abfffc">=</text><text x="252.031" y="96" style="font-family:'RobotoMono-Regular','Roboto Mono',monospace;font-size:16px;fill:#b2b2b2">{</text><text x="262.833" y="96" style="font-family:'RobotoMono-Regular','Roboto Mono',monospace;font-size:16px;fill:#fff">(<tspan x="273.634" y="96">)</tspan></text><text x="284.436" y="96" style="font-family:'RobotoMono-Regular','Roboto Mono',monospace;font-size:16px;fill:#b2b2b2">=<tspan x="295.237" y="96">&gt;</tspan></text><text x="306.039" y="96" style="font-family:'RobotoMono-Regular','Roboto Mono',monospace;font-size:16px;fill:#ffe9a2">s<tspan x="316.841 327.642 338.444 349.245 360.047 370.848 381.65" y="96 96 96 96 96 96 96">etValue</tspan></text><text x="392.452" y="96" style="font-family:'RobotoMono-Regular','Roboto Mono',monospace;font-size:16px;fill:#fff">(</text><text x="403.253" y="96" style="font-family:'RobotoMono-Regular','Roboto Mono',monospace;font-size:16px;fill:#ffe9a2">v<tspan x="414.055 424.856 435.658 446.459" y="96 96 96 96">alue</tspan></text><text x="468.062" y="96" style="font-family:'RobotoMono-Regular','Roboto Mono',monospace;font-size:16px;fill:#fff">-<tspan x="478.864 489.666 500.467" y="96 96 96"> 1)</tspan></text><text x="511.269" y="96" style="font-family:'RobotoMono-Regular','Roboto Mono',monospace;font-size:16px;fill:#b2b2b2">}</text><text x="522.07" y="96" style="font-family:'RobotoMono-Regular','Roboto Mono',monospace;font-size:16px;fill:#77b2b0">&gt;</text><text x="532.872" y="96" style="font-family:'RobotoMono-Regular','Roboto Mono',monospace;font-size:16px;fill:#fff">-</text><text x="543.673" y="96" style="font-family:'RobotoMono-Regular','Roboto Mono',monospace;font-size:16px;fill:#77b2b0">&lt;<tspan x="554.475" y="96">/</tspan></text><text x="565.277" y="96" style="font-family:'RobotoMono-Regular','Roboto Mono',monospace;font-size:16px;fill:#abfffc">b<tspan x="576.078 586.88 597.681 608.483 619.284" y="96 96 96 96 96">utton</tspan></text><text x="630.086" y="96" style="font-family:'RobotoMono-Regular','Roboto Mono',monospace;font-size:16px;fill:#77b2b0">&gt;</text><text x="79.206" y="124" style="font-family:'RobotoMono-Regular','Roboto Mono',monospace;font-size:16px;fill:#77b2b0"><tspan x="79.206" y="124">&lt;</tspan></text><text x="90.008" y="124" style="font-family:'RobotoMono-Regular','Roboto Mono',monospace;font-size:16px;fill:#abfffc">s<tspan x="100.809 111.611 122.413 133.214 144.016" y="124 124 124 124 124">trong</tspan></text><text x="154.817" y="124" style="font-family:'RobotoMono-Regular','Roboto Mono',monospace;font-size:16px;fill:#77b2b0">&gt;</text><text x="165.619" y="124" style="font-family:'RobotoMono-Regular','Roboto Mono',monospace;font-size:16px;fill:#b2b2b2">{</text><text x="176.42" y="124" style="font-family:'RobotoMono-Regular','Roboto Mono',monospace;font-size:16px;fill:#ffe9a2">v<tspan x="187.222 198.023 208.825 219.627" y="124 124 124 124">alue</tspan></text><text x="230.428" y="124" style="font-family:'RobotoMono-Regular','Roboto Mono',monospace;font-size:16px;fill:#b2b2b2">}</text><text x="241.23" y="124" style="font-family:'RobotoMono-Regular','Roboto Mono',monospace;font-size:16px;fill:#77b2b0">&lt;<tspan x="252.031" y="124">/</tspan></text><text x="262.833" y="124" style="font-family:'RobotoMono-Regular','Roboto Mono',monospace;font-size:16px;fill:#abfffc">s<tspan x="273.634 284.436 295.237 306.039 316.841" y="124 124 124 124 124">trong</tspan></text><text x="327.642" y="124" style="font-family:'RobotoMono-Regular','Roboto Mono',monospace;font-size:16px;fill:#77b2b0">&gt;</text><text x="79.206" y="152" style="font-family:'RobotoMono-Regular','Roboto Mono',monospace;font-size:16px;fill:#77b2b0"><tspan x="79.206" y="152">&lt;</tspan></text><text x="90.008" y="152" style="font-family:'RobotoMono-Regular','Roboto Mono',monospace;font-size:16px;fill:#abfffc">b<tspan x="100.809 111.611 122.413 133.214 144.016" y="152 152 152 152 152">utton</tspan></text><text x="165.619" y="152" style="font-family:'RobotoMono-Regular','Roboto Mono',monospace;font-size:16px;fill:#2befb3">o<tspan x="176.42 187.222 198.023 208.825 219.627 230.428" y="152 152 152 152 152 152">nClick</tspan></text><text x="241.23" y="152" style="font-family:'RobotoMono-Regular','Roboto Mono',monospace;font-size:16px;fill:#abfffc">=</text><text x="252.031" y="152" style="font-family:'RobotoMono-Regular','Roboto Mono',monospace;font-size:16px;fill:#b2b2b2">{</text><text x="262.833" y="152" style="font-family:'RobotoMono-Regular','Roboto Mono',monospace;font-size:16px;fill:#fff">(<tspan x="273.634" y="152">)</tspan></text><text x="284.436" y="152" style="font-family:'RobotoMono-Regular','Roboto Mono',monospace;font-size:16px;fill:#b2b2b2">=<tspan x="295.237" y="152">&gt;</tspan></text><text x="306.039" y="152" style="font-family:'RobotoMono-Regular','Roboto Mono',monospace;font-size:16px;fill:#ffe9a2">s<tspan x="316.841 327.642 338.444 349.245 360.047 370.848 381.65" y="152 152 152 152 152 152 152">etValue</tspan></text><text x="392.452" y="152" style="font-family:'RobotoMono-Regular','Roboto Mono',monospace;font-size:16px;fill:#fff">(</text><text x="403.253" y="152" style="font-family:'RobotoMono-Regular','Roboto Mono',monospace;font-size:16px;fill:#ffe9a2">v<tspan x="414.055 424.856 435.658 446.459" y="152 152 152 152">alue</tspan></text><text x="468.062" y="152" style="font-family:'RobotoMono-Regular','Roboto Mono',monospace;font-size:16px;fill:#fff">+<tspan x="478.864 489.666 500.467" y="152 152 152"> 1)</tspan></text><text x="511.269" y="152" style="font-family:'RobotoMono-Regular','Roboto Mono',monospace;font-size:16px;fill:#b2b2b2">}</text><text x="522.07" y="152" style="font-family:'RobotoMono-Regular','Roboto Mono',monospace;font-size:16px;fill:#77b2b0">&gt;</text><text x="532.872" y="152" style="font-family:'RobotoMono-Regular','Roboto Mono',monospace;font-size:16px;fill:#fff">+</text><text x="543.673" y="152" style="font-family:'RobotoMono-Regular','Roboto Mono',monospace;font-size:16px;fill:#77b2b0">&lt;<tspan x="554.475" y="152">/</tspan></text><text x="565.277" y="152" style="font-family:'RobotoMono-Regular','Roboto Mono',monospace;font-size:16px;fill:#abfffc">b<tspan x="576.078 586.88 597.681 608.483 619.284" y="152 152 152 152 152">utton</tspan></text><text x="630.086" y="152" style="font-family:'RobotoMono-Regular','Roboto Mono',monospace;font-size:16px;fill:#77b2b0">&gt;</text><text x="36" y="180" style="font-family:'RobotoMono-Regular','Roboto Mono',monospace;font-size:16px;fill:#77b2b0"><tspan x="36 46.802 57.603" y="180 180 180">&lt;/&gt;</tspan></text><text x="0" y="208" style="font-family:'RobotoMono-Regular','Roboto Mono',monospace;font-size:16px;fill:#b2b2b2">}</text></g></g></g></g></g></g></svg>