<svg xmlns="http://www.w3.org/2000/svg" xmlns:xlink="http://www.w3.org/1999/xlink" width="100%" height="100%" version="1.1" viewBox="0 0 460 103" xml:space="preserve" style="fill-rule:evenodd;clip-rule:evenodd;stroke-linejoin:round;stroke-miterlimit:2"><g transform="matrix(1,0,0,1,-132.73,-399.731)"><g id="step-4"><g transform="matrix(1,0,0,1,132.73,400.567)"><g id="step-41"><text x="0" y="12" style="font-family:'RobotoMono-Regular','Roboto Mono',monospace;font-size:16px;fill:#ff8282">c<tspan x="10.802 21.603 32.405 43.206 54.008 64.809 75.611 86.413 97.214 108.016 118.817 129.619 140.42" y="12 12 12 12 12 12 12 12 12 12 12 12 12">ustomElements</tspan></text><text x="151.222" y="12" style="font-family:'RobotoMono-Regular','Roboto Mono',monospace;font-size:16px;fill:#b2b2b2">.</text><text x="162.023" y="12" style="font-family:'RobotoMono-Regular','Roboto Mono',monospace;font-size:16px;fill:#ff8282">d<tspan x="172.825 183.627 194.428 205.23 216.031" y="12 12 12 12 12">efine</tspan></text><text x="226.833" y="12" style="font-family:'RobotoMono-Regular','Roboto Mono',monospace;font-size:16px;fill:#b2b2b2">(</text><text x="36" y="40" style="font-family:'RobotoMono-Regular','Roboto Mono',monospace;font-size:16px;fill:#b2b2b2">&quot;</text><text x="46.802" y="40" style="font-family:'RobotoMono-Regular','Roboto Mono',monospace;font-size:16px;fill:#fff">a<tspan x="57.603 68.405 79.206 90.008 100.809 111.611" y="40 40 40 40 40 40">tomico</tspan></text><text x="122.413" y="40" style="font-family:'RobotoMono-Regular','Roboto Mono',monospace;font-size:16px;fill:#b2b2b2">&quot;<tspan x="133.214" y="40">,</tspan></text><text x="36" y="68" style="font-family:'RobotoMono-Regular','Roboto Mono',monospace;font-size:16px;fill:#ff8282">c</text><text x="46.802" y="68" style="font-family:'RobotoMono-Regular','Roboto Mono',monospace;font-size:16px;fill:#b2b2b2">(</text><text x="57.603" y="68" style="font-family:'RobotoMono-Regular','Roboto Mono',monospace;font-size:16px;fill:#ff8282">c<tspan x="68.405 79.206 90.008 100.809 111.611 122.413 133.214 144.016" y="68 68 68 68 68 68 68 68">omponent</tspan></text><text x="154.817" y="68" style="font-family:'RobotoMono-Regular','Roboto Mono',monospace;font-size:16px;fill:#b2b2b2">)</text><text x="0" y="96" style="font-family:'RobotoMono-Regular','Roboto Mono',monospace;font-size:16px;fill:#b2b2b2">)</text></g></g><g transform="matrix(5.22727,0,0,1.99644,-734.997,-437.939)"><rect width="88" height="51" x="166" y="420" style="fill:#2befb3;fill-opacity:0"/></g></g></g></svg>