<svg xmlns="http://www.w3.org/2000/svg" xmlns:xlink="http://www.w3.org/1999/xlink" width="100%" height="100%" version="1.1" viewBox="0 0 460 35" xml:space="preserve" style="fill-rule:evenodd;clip-rule:evenodd;stroke-linejoin:round;stroke-miterlimit:2"><g transform="matrix(1,0,0,1,-132.73,-80.567)"><g id="step-1"><g transform="matrix(5.22727,0,0,0.686275,-734.997,-207.668)"><rect width="88" height="51" x="166" y="420" style="fill:#2befb3;fill-opacity:0"/></g><g transform="matrix(1,0,0,1,132.73,90.6144)"><g id="step-11"><text x="0" y="12" style="font-family:'RobotoMono-Regular','Roboto Mono',monospace;font-size:16px;fill:#ff8282">i<tspan x="10.802 21.603 32.405 43.206 54.008" y="12 12 12 12 12">mport</tspan></text><text x="75.611" y="12" style="font-family:'RobotoMono-Regular','Roboto Mono',monospace;font-size:16px;fill:#b2b2b2">{</text><text x="97.214" y="12" style="font-family:'RobotoMono-Regular','Roboto Mono',monospace;font-size:16px;fill:#ffe9a2">c</text><text x="118.817" y="12" style="font-family:'RobotoMono-Regular','Roboto Mono',monospace;font-size:16px;fill:#b2b2b2">}</text><text x="140.42" y="12" style="font-family:'RobotoMono-Regular','Roboto Mono',monospace;font-size:16px;fill:#ff8282"><tspan x="140.42 151.222 162.023 172.825" y="12 12 12 12">from</tspan></text><text x="194.428" y="12" style="font-family:'RobotoMono-Regular','Roboto Mono',monospace;font-size:16px;fill:#b2b2b2">&quot;</text><text x="205.23" y="12" style="font-family:'RobotoMono-Regular','Roboto Mono',monospace;font-size:16px;fill:#fff">a<tspan x="216.031 226.833 237.634 248.436 259.237 270.039" y="12 12 12 12 12 12">tomico</tspan></text><text x="280.841" y="12" style="font-family:'RobotoMono-Regular','Roboto Mono',monospace;font-size:16px;fill:#b2b2b2">&quot;</text></g></g></g></g></svg>