<svg xmlns="http://www.w3.org/2000/svg" xmlns:xlink="http://www.w3.org/1999/xlink" width="100%" height="100%" version="1.1" viewBox="0 0 460 73" xml:space="preserve" style="fill-rule:evenodd;clip-rule:evenodd;stroke-linejoin:round;stroke-miterlimit:2"><g transform="matrix(1,0,0,1,-132.73,-290.09)"><g id="step-3"><g transform="matrix(5.22727,0,0,1.41176,-734.997,-302.374)"><rect width="88" height="51" x="166" y="420" style="fill:#2befb3;fill-opacity:0"/></g><g transform="matrix(1,0,0,1,132.73,290.567)"><g id="step-31"><text x="0" y="12" style="font-family:'RobotoMono-Regular','Roboto Mono',monospace;font-size:16px;fill:#ff8282">c<tspan x="10.802 21.603 32.405 43.206 54.008 64.809 75.611 86.413" y="12 12 12 12 12 12 12 12">omponent</tspan></text><text x="97.214" y="12" style="font-family:'RobotoMono-Regular','Roboto Mono',monospace;font-size:16px;fill:#b2b2b2">.</text><text x="108.016" y="12" style="font-family:'RobotoMono-Regular','Roboto Mono',monospace;font-size:16px;fill:#ff8282">p<tspan x="118.817 129.619 140.42 151.222" y="12 12 12 12">rops</tspan></text><text x="172.825" y="12" style="font-family:'RobotoMono-Regular','Roboto Mono',monospace;font-size:16px;fill:#fff">=</text><text x="194.428" y="12" style="font-family:'RobotoMono-Regular','Roboto Mono',monospace;font-size:16px;fill:#b2b2b2">{</text><text x="36" y="40" style="font-family:'RobotoMono-Regular','Roboto Mono',monospace;font-size:16px;fill:#ff8282"><tspan x="36 46.802 57.603 68.405 79.206 90.008 100.809" y="40 40 40 40 40 40 40">message</tspan></text><text x="111.611" y="40" style="font-family:'RobotoMono-Regular','Roboto Mono',monospace;font-size:16px;fill:#b2b2b2">:</text><text x="133.214" y="40" style="font-family:'RobotoMono-Regular','Roboto Mono',monospace;font-size:16px;fill:#2befb3">S<tspan x="144.016 154.817 165.619 176.42 187.222" y="40 40 40 40 40">tring</tspan></text><text x="0" y="68" style="font-family:'RobotoMono-Regular','Roboto Mono',monospace;font-size:16px;fill:#b2b2b2">}</text></g></g></g></g></svg>