<svg xmlns="http://www.w3.org/2000/svg" xmlns:xlink="http://www.w3.org/1999/xlink" width="100%" height="100%" version="1.1" viewBox="0 0 460 79" xml:space="preserve" style="fill-rule:evenodd;clip-rule:evenodd;stroke-linejoin:round;stroke-miterlimit:2"><g transform="matrix(1,0,0,1,-132.73,-159.731)"><g id="step-2"><g transform="matrix(1,0,0,1,132.73,160.567)"><g id="step-21"><text x="0" y="12" style="font-family:'RobotoMono-Regular','Roboto Mono',monospace;font-size:16px;fill:#ff8282">f<tspan x="10.802 21.603 32.405 43.206 54.008 64.809 75.611" y="12 12 12 12 12 12 12">unction</tspan></text><text x="97.214" y="12" style="font-family:'RobotoMono-Regular','Roboto Mono',monospace;font-size:16px;fill:#2befb3">c<tspan x="108.016 118.817 129.619 140.42 151.222 162.023 172.825 183.627" y="12 12 12 12 12 12 12 12">omponent</tspan></text><text x="194.428" y="12" style="font-family:'RobotoMono-Regular','Roboto Mono',monospace;font-size:16px;fill:#b2b2b2">(<tspan x="205.23" y="12">{</tspan></text><text x="226.833" y="12" style="font-family:'RobotoMono-Regular','Roboto Mono',monospace;font-size:16px;fill:#ffe9a2">m<tspan x="237.634 248.436 259.237 270.039 280.841 291.642" y="12 12 12 12 12 12">essage</tspan></text><text x="313.245" y="12" style="font-family:'RobotoMono-Regular','Roboto Mono',monospace;font-size:16px;fill:#b2b2b2">}</text><text x="324.047" y="12" style="font-family:'RobotoMono-Regular','Roboto Mono',monospace;font-size:16px;fill:#fff">)</text><text x="334.848" y="12" style="font-family:'RobotoMono-Regular','Roboto Mono',monospace;font-size:16px;fill:#b2b2b2">{</text><text x="36" y="40" style="font-family:'RobotoMono-Regular','Roboto Mono',monospace;font-size:16px;fill:#ff8282"><tspan x="36 46.802 57.603 68.405 79.206 90.008" y="40 40 40 40 40 40">return</tspan></text><text x="111.611" y="40" style="font-family:'RobotoMono-Regular','Roboto Mono',monospace;font-size:16px;fill:#77b2b0">&lt;</text><text x="122.413" y="40" style="font-family:'RobotoMono-Regular','Roboto Mono',monospace;font-size:16px;fill:#abfffc">h<tspan x="133.214 144.016 154.817" y="40 40 40">ost</tspan></text><text x="165.619" y="40" style="font-family:'RobotoMono-Regular','Roboto Mono',monospace;font-size:16px;fill:#77b2b0">&gt;</text><text x="176.42" y="40" style="font-family:'RobotoMono-Regular','Roboto Mono',monospace;font-size:16px;fill:#fff">H<tspan x="187.222 198.023 208.825 219.627" y="40 40 40 40">ello</tspan></text><text x="241.23" y="40" style="font-family:'RobotoMono-Regular','Roboto Mono',monospace;font-size:16px;fill:#b2b2b2">{</text><text x="252.031" y="40" style="font-family:'RobotoMono-Regular','Roboto Mono',monospace;font-size:16px;fill:#ffe9a2">m<tspan x="262.833 273.634 284.436 295.237 306.039 316.841" y="40 40 40 40 40 40">essage</tspan></text><text x="327.642" y="40" style="font-family:'RobotoMono-Regular','Roboto Mono',monospace;font-size:16px;fill:#b2b2b2">}</text><text x="338.444" y="40" style="font-family:'RobotoMono-Regular','Roboto Mono',monospace;font-size:16px;fill:#77b2b0">&lt;<tspan x="349.245" y="40">/</tspan></text><text x="360.047" y="40" style="font-family:'RobotoMono-Regular','Roboto Mono',monospace;font-size:16px;fill:#abfffc">h<tspan x="370.848 381.65 392.452" y="40 40 40">ost</tspan></text><text x="403.253" y="40" style="font-family:'RobotoMono-Regular','Roboto Mono',monospace;font-size:16px;fill:#77b2b0">&gt;</text><text x="0" y="68" style="font-family:'RobotoMono-Regular','Roboto Mono',monospace;font-size:16px;fill:#b2b2b2">}</text></g></g><g transform="matrix(5.22727,0,0,1.52941,-734.997,-481.786)"><rect width="88" height="51" x="166" y="420" style="fill:#2befb3;fill-opacity:0"/></g></g></g></svg>